<svg xmlns="http://www.w3.org/2000/svg" width="162" height="48" viewBox="0 0 162 48"><defs><style>.a{fill:#a6a6a6;}.b{fill:#fff;}</style></defs><path class="a" d="M156.236,48H5.675A5.688,5.688,0,0,1,0,42.32V5.671A5.68,5.68,0,0,1,5.675,0H156.236A5.757,5.757,0,0,1,162,5.671V42.32A5.765,5.765,0,0,1,156.236,48Z"/><g transform="translate(1.068 1.068)"><path d="M161.074,42.557a4.6,4.6,0,0,1-4.6,4.6H5.91a4.6,4.6,0,0,1-4.607-4.6V5.906A4.608,4.608,0,0,1,5.91,1.3H156.472a4.6,4.6,0,0,1,4.6,4.6Z" transform="translate(-1.304 -1.304)"/></g><g transform="translate(15.35 7.46)"><path class="b" d="M39.539,27.015a6.956,6.956,0,0,1,3.313-5.837,7.125,7.125,0,0,0-5.611-3.034c-2.36-.248-4.65,1.412-5.852,1.412-1.226,0-3.078-1.388-5.074-1.348a7.471,7.471,0,0,0-6.288,3.835c-2.719,4.708-.691,11.626,1.914,15.431,1.3,1.864,2.826,3.944,4.819,3.871,1.95-.08,2.678-1.243,5.032-1.243,2.332,0,3.016,1.243,5.048,1.2,2.093-.034,3.41-1.872,4.668-3.752A15.4,15.4,0,0,0,43.643,33.2a6.724,6.724,0,0,1-4.1-6.185Z" transform="translate(-18.736 -10.734)"/><path class="b" d="M38.429,14.013A6.847,6.847,0,0,0,40,9.106a6.975,6.975,0,0,0-4.51,2.333,6.516,6.516,0,0,0-1.608,4.726,5.761,5.761,0,0,0,4.55-2.152Z" transform="translate(-21.466 -9.106)"/></g><g transform="translate(50.892 21.601)"><path class="b" d="M75.6,42.621H72.873L71.38,37.93H66.191l-1.422,4.691H62.116l5.141-15.97h3.175ZM70.93,35.962l-1.35-4.17q-.214-.639-.805-3.008h-.048q-.236,1.019-.758,3.008l-1.326,4.17Z" transform="translate(-62.116 -26.417)"/><path class="b" d="M92.262,37.652a6.544,6.544,0,0,1-1.588,4.643,4.642,4.642,0,0,1-3.53,1.517,3.53,3.53,0,0,1-3.27-1.634h-.048v6.066H81.268V35.826q0-1.847-.095-3.791h2.25l.143,1.825h.048A4.552,4.552,0,0,1,90.9,33.41,6.344,6.344,0,0,1,92.262,37.652Zm-2.606.094a4.741,4.741,0,0,0-.758-2.772,2.619,2.619,0,0,0-2.227-1.138,2.66,2.66,0,0,0-1.717.628,2.911,2.911,0,0,0-1.007,1.648,3.35,3.35,0,0,0-.119.78v1.92a3.077,3.077,0,0,0,.77,2.122,2.554,2.554,0,0,0,2,.865,2.619,2.619,0,0,0,2.25-1.114A4.9,4.9,0,0,0,89.656,37.745Z" transform="translate(-65.56 -27.347)"/><path class="b" d="M108.428,37.652a6.539,6.539,0,0,1-1.589,4.643,4.638,4.638,0,0,1-3.529,1.517,3.527,3.527,0,0,1-3.269-1.634h-.048v6.066H97.435V35.826q0-1.847-.095-3.791h2.25l.143,1.825h.048a4.553,4.553,0,0,1,7.286-.451,6.362,6.362,0,0,1,1.361,4.242Zm-2.606.094a4.741,4.741,0,0,0-.76-2.772,2.616,2.616,0,0,0-2.226-1.138,2.664,2.664,0,0,0-1.718.628,2.909,2.909,0,0,0-1.006,1.648,3.415,3.415,0,0,0-.119.78v1.92a3.086,3.086,0,0,0,.768,2.122,2.559,2.559,0,0,0,2,.865,2.619,2.619,0,0,0,2.25-1.114,4.9,4.9,0,0,0,.806-2.939Z" transform="translate(-68.481 -27.347)"/><path class="b" d="M126.762,38.091a4.256,4.256,0,0,1-1.418,3.317,6.286,6.286,0,0,1-4.35,1.4,7.615,7.615,0,0,1-4.139-.995l.593-2.132a7.013,7.013,0,0,0,3.7,1.02,3.5,3.5,0,0,0,2.252-.653,2.132,2.132,0,0,0,.8-1.745,2.224,2.224,0,0,0-.664-1.637,6.169,6.169,0,0,0-2.2-1.235q-4.194-1.564-4.193-4.579a4.052,4.052,0,0,1,1.47-3.227,5.8,5.8,0,0,1,3.91-1.258,7.751,7.751,0,0,1,3.624.758l-.64,2.086a6.288,6.288,0,0,0-3.056-.734,3.094,3.094,0,0,0-2.107.664,1.9,1.9,0,0,0-.64,1.446,1.952,1.952,0,0,0,.733,1.564,8.287,8.287,0,0,0,2.323,1.232,7.882,7.882,0,0,1,3.032,1.942,4.056,4.056,0,0,1,.97,2.768Z" transform="translate(-72.007 -26.365)"/><path class="b" d="M137.725,33.375H134.9v5.591q0,2.133,1.493,2.132a4.55,4.55,0,0,0,1.136-.119l.071,1.943a5.8,5.8,0,0,1-1.99.283,3.07,3.07,0,0,1-2.37-.924,4.539,4.539,0,0,1-.853-3.1v-5.8h-1.68v-1.92h1.68V29.344l2.513-.758v2.867h2.82Z" transform="translate(-74.511 -26.767)"/><path class="b" d="M152.314,37.7a6.317,6.317,0,0,1-1.517,4.36,5.415,5.415,0,0,1-4.219,1.753,5.149,5.149,0,0,1-4.038-1.681,6.123,6.123,0,0,1-1.5-4.241,6.255,6.255,0,0,1,1.552-4.382,5.37,5.37,0,0,1,4.181-1.706,5.259,5.259,0,0,1,4.075,1.682,6.053,6.053,0,0,1,1.471,4.216Zm-2.654.083a5.18,5.18,0,0,0-.686-2.732,2.527,2.527,0,0,0-2.3-1.378,2.565,2.565,0,0,0-2.346,1.378,5.279,5.279,0,0,0-.686,2.78,5.172,5.172,0,0,0,.686,2.731,2.615,2.615,0,0,0,4.62-.024A5.2,5.2,0,0,0,149.659,37.782Z" transform="translate(-76.377 -27.347)"/><path class="b" d="M163.593,34.286a4.442,4.442,0,0,0-.806-.071,2.417,2.417,0,0,0-2.086,1.02,3.834,3.834,0,0,0-.64,2.274v6.042H157.5l.024-7.889q0-1.991-.1-3.625h2.228l.094,2.2h.071a3.938,3.938,0,0,1,1.279-1.824,3.093,3.093,0,0,1,1.849-.617,4.108,4.108,0,0,1,.64.047Z" transform="translate(-79.34 -27.347)"/><path class="b" d="M176.66,37.244a6,6,0,0,1-.094,1.16h-7.675A3.341,3.341,0,0,0,170,41.012a3.8,3.8,0,0,0,2.51.805,8.489,8.489,0,0,0,3.106-.545l.4,1.776a9.6,9.6,0,0,1-3.86.712,5.592,5.592,0,0,1-4.207-1.576,5.819,5.819,0,0,1-1.528-4.229,6.6,6.6,0,0,1,1.423-4.336,4.9,4.9,0,0,1,4.026-1.847,4.291,4.291,0,0,1,3.769,1.847A6.228,6.228,0,0,1,176.66,37.244Zm-2.44-.664a3.476,3.476,0,0,0-.5-1.967,2.235,2.235,0,0,0-2.039-1.067,2.427,2.427,0,0,0-2.036,1.043,3.818,3.818,0,0,0-.757,1.99h5.329Z" transform="translate(-80.965 -27.342)"/></g><g transform="translate(52.411 7.867)"><path class="b" d="M70.419,13.823a3.939,3.939,0,0,1-1.27,3.19A5.05,5.05,0,0,1,65.81,18a15.484,15.484,0,0,1-1.84-.094V10.19a13.575,13.575,0,0,1,2.166-.163,4.669,4.669,0,0,1,3.108.9A3.623,3.623,0,0,1,70.419,13.823Zm-1.326.035a2.868,2.868,0,0,0-.727-2.107,2.867,2.867,0,0,0-2.125-.733,5.322,5.322,0,0,0-1.013.082v5.867a6.639,6.639,0,0,0,.85.035,2.975,2.975,0,0,0,2.228-.8,3.215,3.215,0,0,0,.787-2.34Z" transform="translate(-63.97 -9.679)"/><path class="b" d="M79.2,15.527a3.1,3.1,0,0,1-.745,2.142,2.66,2.66,0,0,1-2.072.862A2.528,2.528,0,0,1,74.4,17.7a3.011,3.011,0,0,1-.738-2.083,3.073,3.073,0,0,1,.762-2.153,2.643,2.643,0,0,1,2.054-.838,2.587,2.587,0,0,1,2,.826A2.987,2.987,0,0,1,79.2,15.527Zm-1.3.041a2.559,2.559,0,0,0-.337-1.343,1.242,1.242,0,0,0-1.128-.677,1.262,1.262,0,0,0-1.153.677,2.593,2.593,0,0,0-.337,1.366,2.559,2.559,0,0,0,.337,1.343,1.269,1.269,0,0,0,1.141.677,1.255,1.255,0,0,0,1.128-.689A2.542,2.542,0,0,0,77.9,15.567Z" transform="translate(-65.721 -10.149)"/><path class="b" d="M90.122,12.77l-1.77,5.657H87.2l-.733-2.456a18.389,18.389,0,0,1-.455-1.828h-.023a13.376,13.376,0,0,1-.455,1.828l-.779,2.456H83.59L81.926,12.77h1.292l.64,2.689q.232.954.384,1.816h.023q.14-.709.467-1.8l.8-2.7h1.025l.769,2.642q.279.967.454,1.862h.035a17.8,17.8,0,0,1,.384-1.862l.686-2.642h1.235Z" transform="translate(-67.215 -10.175)"/><path class="b" d="M98.793,18.4H97.536v-3.24q0-1.5-1.14-1.5a1.135,1.135,0,0,0-.908.412,1.461,1.461,0,0,0-.349.97V18.4H93.881V14.361q0-.745-.046-1.619H94.94l.059.884h.035a1.817,1.817,0,0,1,.652-.683,2.126,2.126,0,0,1,1.14-.318,1.805,1.805,0,0,1,1.316.512,2.49,2.49,0,0,1,.652,1.874Z" transform="translate(-69.367 -10.149)"/><path class="b" d="M103.843,17.855h-1.256V9.6h1.256Z" transform="translate(-70.948 -9.602)"/><path class="b" d="M111.935,15.527a3.1,3.1,0,0,1-.745,2.142,2.661,2.661,0,0,1-2.072.862,2.525,2.525,0,0,1-1.985-.827,3.011,3.011,0,0,1-.738-2.083,3.073,3.073,0,0,1,.762-2.153,2.642,2.642,0,0,1,2.053-.838,2.59,2.59,0,0,1,2,.826A2.987,2.987,0,0,1,111.935,15.527Zm-1.306.041a2.559,2.559,0,0,0-.337-1.343,1.24,1.24,0,0,0-1.127-.677,1.259,1.259,0,0,0-1.153.677,2.593,2.593,0,0,0-.337,1.366,2.559,2.559,0,0,0,.337,1.343,1.269,1.269,0,0,0,1.141.677,1.253,1.253,0,0,0,1.127-.689,2.532,2.532,0,0,0,.349-1.354Z" transform="translate(-71.636 -10.149)"/><path class="b" d="M119.561,18.4h-1.129l-.094-.652H118.3a1.937,1.937,0,0,1-1.652.78,1.705,1.705,0,0,1-1.291-.512,1.607,1.607,0,0,1-.443-1.152,1.757,1.757,0,0,1,.868-1.583,4.5,4.5,0,0,1,2.44-.535v-.106q0-1.118-1.175-1.117a2.631,2.631,0,0,0-1.475.419l-.256-.826a3.628,3.628,0,0,1,1.94-.488q2.218,0,2.22,2.34v2.083a8.836,8.836,0,0,0,.082,1.349Zm-1.306-1.944v-.872q-2.081-.036-2.081,1.14a.852.852,0,0,0,.241.664.88.88,0,0,0,.614.221,1.27,1.27,0,0,0,.769-.262,1.074,1.074,0,0,0,.456-.89Z" transform="translate(-73.176 -10.149)"/><path class="b" d="M128.117,17.855H127l-.059-.908h-.035a1.88,1.88,0,0,1-1.817,1.037,2.129,2.129,0,0,1-1.7-.8,3.128,3.128,0,0,1-.674-2.083,3.28,3.28,0,0,1,.733-2.224,2.254,2.254,0,0,1,1.746-.792,1.7,1.7,0,0,1,1.594.768h.024V9.6h1.259v6.728q0,.826.044,1.524Zm-1.3-2.386v-.943a1.852,1.852,0,0,0-.035-.4,1.432,1.432,0,0,0-.455-.762,1.236,1.236,0,0,0-.841-.308,1.291,1.291,0,0,0-1.106.559,2.4,2.4,0,0,0-.4,1.432,2.234,2.234,0,0,0,.386,1.362,1.294,1.294,0,0,0,1.1.558,1.212,1.212,0,0,0,.994-.466,1.55,1.55,0,0,0,.361-1.036Z" transform="translate(-74.586 -9.602)"/><path class="b" d="M141.213,15.527a3.1,3.1,0,0,1-.745,2.142,2.658,2.658,0,0,1-2.072.862,2.531,2.531,0,0,1-1.985-.827,3.011,3.011,0,0,1-.738-2.083,3.073,3.073,0,0,1,.762-2.153,2.644,2.644,0,0,1,2.056-.838,2.584,2.584,0,0,1,2,.826A2.987,2.987,0,0,1,141.213,15.527Zm-1.3.041a2.558,2.558,0,0,0-.337-1.343,1.244,1.244,0,0,0-1.129-.677,1.264,1.264,0,0,0-1.153.677,2.593,2.593,0,0,0-.337,1.366,2.559,2.559,0,0,0,.337,1.343,1.285,1.285,0,0,0,2.27-.012A2.553,2.553,0,0,0,139.91,15.567Z" transform="translate(-76.927 -10.149)"/><path class="b" d="M149.6,18.4h-1.256v-3.24q0-1.5-1.141-1.5a1.131,1.131,0,0,0-.907.412,1.454,1.454,0,0,0-.349.97V18.4h-1.259V14.361q0-.745-.044-1.619h1.1l.059.884h.035a1.836,1.836,0,0,1,.652-.683,2.13,2.13,0,0,1,1.141-.318,1.8,1.8,0,0,1,1.315.512,2.485,2.485,0,0,1,.652,1.874Z" transform="translate(-78.547 -10.149)"/><path class="b" d="M160.259,13.4h-1.385V16.15c0,.7.246,1.048.733,1.048a2.215,2.215,0,0,0,.56-.059l.032.954a2.826,2.826,0,0,1-.977.14,1.5,1.5,0,0,1-1.163-.454,2.219,2.219,0,0,1-.42-1.525V13.4h-.827V12.46h.827V11.423l1.232-.372v1.408h1.385V13.4Z" transform="translate(-80.747 -9.864)"/><path class="b" d="M168.061,17.855H166.8V14.639q0-1.521-1.139-1.522a1.2,1.2,0,0,0-1.2.882,1.581,1.581,0,0,0-.059.452v3.4h-1.256V9.6H164.4v3.409h.024a1.9,1.9,0,0,1,1.7-.93,1.753,1.753,0,0,1,1.294.512,2.576,2.576,0,0,1,.64,1.9Z" transform="translate(-81.892 -9.602)"/><path class="b" d="M176.418,15.3a3.036,3.036,0,0,1-.047.57H172.6a1.649,1.649,0,0,0,.546,1.28,1.873,1.873,0,0,0,1.235.4,4.166,4.166,0,0,0,1.525-.268l.2.874a4.736,4.736,0,0,1-1.9.349,2.742,2.742,0,0,1-2.065-.774,2.851,2.851,0,0,1-.75-2.077,3.237,3.237,0,0,1,.7-2.13,2.4,2.4,0,0,1,1.978-.907,2.1,2.1,0,0,1,1.849.907,3.02,3.02,0,0,1,.5,1.78Zm-1.2-.325a1.693,1.693,0,0,0-.244-.966,1.1,1.1,0,0,0-1-.524,1.194,1.194,0,0,0-1,.512,1.9,1.9,0,0,0-.373.978Z" transform="translate(-83.381 -10.147)"/></g></svg>