<svg xmlns="http://www.w3.org/2000/svg" width="196.844" height="116.995" viewBox="0 0 196.844 116.995"><defs><style>.a{fill:#fff;}</style></defs><g transform="translate(-702 -2646)"><g transform="translate(702 2582.867)"><g transform="translate(0 63.133)"><path class="a" d="M172.239,133.852a3.076,3.076,0,0,0-3.076,3.076v21.551H164.27a19.438,19.438,0,0,0-38.631,0H61.514v-89.2H169.163v9.673a3.076,3.076,0,0,0,6.151,0V66.208a3.076,3.076,0,0,0-3.076-3.076H58.438a3.076,3.076,0,0,0-3.076,3.076v3.076H20.14A14.006,14.006,0,0,0,6.151,83.272v4.466a3.076,3.076,0,0,0,3.076,3.076H12.8L10.457,119A13.979,13.979,0,0,0,0,132.483v26a3.076,3.076,0,0,0,3.076,3.076H9.3a19.974,19.974,0,0,0,39.83,0c.028,0,.049.015.077.015h6.151a3.076,3.076,0,0,0,3.076,3.076h67.481a19.444,19.444,0,0,0,38.071,0h8.249a3.076,3.076,0,0,0,3.076-3.076V136.928A3.076,3.076,0,0,0,172.239,133.852ZM29.219,173.858A13.841,13.841,0,1,1,43.06,160.017,13.841,13.841,0,0,1,29.219,173.858ZM55.363,155.4H49.211a2.82,2.82,0,0,0-.532.108A19.967,19.967,0,0,0,9.787,155.4H6.151v-22.92a7.846,7.846,0,0,1,7.837-7.837H55.363Zm0-36.908H16.67l2.307-27.681H55.363Zm0-33.833H12.3v-1.39a7.846,7.846,0,0,1,7.837-7.837H55.363Zm102.865,76.769a13.268,13.268,0,0,1-13.27,12.524h0a13.29,13.29,0,0,1-13.066-11.02,2.768,2.768,0,0,0-.157-2.993,13.268,13.268,0,1,1,26.5,1.489Z" transform="translate(0 -63.133)"/><path class="a" d="M240.676,102.041h-43.06a3.076,3.076,0,0,0,0,6.151h43.06a3.076,3.076,0,0,0,0-6.151Z" transform="translate(-71.513 -77.435)"/><path class="a" d="M236.1,155.539H168.435a3.076,3.076,0,1,0,0,6.151H236.1a3.076,3.076,0,0,0,0-6.151Z" transform="translate(-60.786 -97.101)"/><path class="a" d="M246.039,126.358H212.207a3.076,3.076,0,0,0,0,6.151h33.833a3.076,3.076,0,0,0,0-6.151Z" transform="translate(-76.876 -86.374)"/><path class="a" d="M285.159,108.192h6.151a3.076,3.076,0,0,0,0-6.151h-6.151a3.076,3.076,0,1,0,0,6.151Z" transform="translate(-103.693 -77.435)"/><path class="a" d="M296.174,155.539h-6.151a3.076,3.076,0,0,0,0,6.151h6.151a3.076,3.076,0,1,0,0-6.151Z" transform="translate(-105.481 -97.101)"/><path class="a" d="M297.462,126.358h-12.3a3.076,3.076,0,1,0,0,6.151h12.3a3.076,3.076,0,0,0,0-6.151Z" transform="translate(-103.693 -86.374)"/></g></g></g></svg>