<svg xmlns="http://www.w3.org/2000/svg" xmlns:xlink="http://www.w3.org/1999/xlink" width="164.685" height="48.796" viewBox="0 0 164.685 48.796"><defs><style>.a{fill:#a6a6a6;}.b,.c,.j{fill:#fff;}.b{stroke:#fff;stroke-miterlimit:10;stroke-width:0.273px;}.d{fill:url(#a);}.e{fill:url(#b);}.f{fill:url(#c);}.g{fill:url(#d);}.h{opacity:0.2;}.i{opacity:0.12;}.j{opacity:0.25;}</style><linearGradient id="a" x1="-14.722" y1="1.132" x2="-15.675" y2="0.64" gradientUnits="objectBoundingBox"><stop offset="0" stop-color="#00a0ff"/><stop offset="0.01" stop-color="#00a1ff"/><stop offset="0.26" stop-color="#00beff"/><stop offset="0.51" stop-color="#00d2ff"/><stop offset="0.76" stop-color="#00dfff"/><stop offset="1" stop-color="#00e3ff"/></linearGradient><linearGradient id="b" x1="-19.149" y1="1.381" x2="-20.898" y2="1.381" gradientUnits="objectBoundingBox"><stop offset="0" stop-color="#ffe000"/><stop offset="0.41" stop-color="#ffbd00"/><stop offset="0.78" stop-color="orange"/><stop offset="1" stop-color="#ff9c00"/></linearGradient><linearGradient id="c" x1="-11.294" y1="0.455" x2="-12.295" y2="-0.843" gradientUnits="objectBoundingBox"><stop offset="0" stop-color="#ff3a44"/><stop offset="1" stop-color="#c31162"/></linearGradient><linearGradient id="d" x1="-12.065" y1="2.717" x2="-11.618" y2="2.138" gradientUnits="objectBoundingBox"><stop offset="0" stop-color="#32a071"/><stop offset="0.07" stop-color="#2da771"/><stop offset="0.48" stop-color="#15cf74"/><stop offset="0.8" stop-color="#06e775"/><stop offset="1" stop-color="#00f076"/></linearGradient></defs><rect width="164.684" height="48.795" rx="7.366"/><path class="a" d="M427.362,133.943a5.123,5.123,0,0,1,5.123,5.124v36.6a5.123,5.123,0,0,1-5.123,5.123H274.877a5.124,5.124,0,0,1-5.124-5.124v-36.6a5.123,5.123,0,0,1,5.124-5.124H427.362m0-.976H274.877a6.1,6.1,0,0,0-6.1,6.1v36.6a6.1,6.1,0,0,0,6.1,6.1H427.362a6.1,6.1,0,0,0,6.1-6.1v-36.6A6.1,6.1,0,0,0,427.362,132.967Z" transform="translate(-268.777 -132.967)"/><path class="b" d="M340.626,147.63a3.057,3.057,0,0,1-.846,2.256,3.283,3.283,0,0,1-2.482,1,3.554,3.554,0,0,1-2.493-6.059,3.385,3.385,0,0,1,2.493-1.015,3.5,3.5,0,0,1,1.388.282,2.787,2.787,0,0,1,1.061.756l-.6.6a2.256,2.256,0,0,0-1.85-.8,2.618,2.618,0,0,0-2.629,2.708,2.663,2.663,0,0,0,4.513,1.952,2.132,2.132,0,0,0,.564-1.376H337.3v-.812h3.283a2.863,2.863,0,0,1,.045.508Z" transform="translate(-279.95 -134.832)"/><path class="b" d="M347.469,144.843h-3.046v2.144H347.2v.812h-2.775v2.144h3.046v.835H343.52v-6.769h3.949Z" transform="translate(-281.626 -134.865)"/><path class="b" d="M352.184,150.778h-.869v-5.935h-1.9v-.835h4.7v.835h-1.941Z" transform="translate(-282.641 -134.865)"/><path class="b" d="M359.107,150.778v-6.77h.869v6.77Z" transform="translate(-284.306 -134.865)"/><path class="b" d="M364.242,150.778h-.869v-5.935h-1.9v-.835h4.648v.835h-1.884Z" transform="translate(-284.714 -134.865)"/><path class="b" d="M376.494,149.863a3.52,3.52,0,0,1-4.964,0,3.655,3.655,0,0,1,0-5.021,3.5,3.5,0,0,1,4.964,0A3.644,3.644,0,0,1,376.494,149.863Zm-4.321-.564a2.606,2.606,0,0,0,3.678,0,2.888,2.888,0,0,0,0-3.881,2.606,2.606,0,0,0-3.678,0,2.888,2.888,0,0,0,0,3.881Z" transform="translate(-286.27 -134.831)"/><path class="b" d="M380.416,150.778v-6.77h1.061l3.294,5.269h0v-5.269h.857v6.77h-.9l-3.441-5.517h0v5.517Z" transform="translate(-287.969 -134.865)"/><path class="c" d="M363.892,162.99a4.8,4.8,0,1,0,4.818,4.8,4.727,4.727,0,0,0-4.818-4.8Zm0,7.706a2.911,2.911,0,1,1,2.708-2.911,2.776,2.776,0,0,1-2.708,2.911Zm-10.5-7.706a4.8,4.8,0,1,0,4.806,4.8,4.727,4.727,0,0,0-4.818-4.8Zm0,7.706a2.911,2.911,0,1,1,2.7-2.911,2.776,2.776,0,0,1-2.708,2.911Zm-12.512-6.228V166.5h4.874a4.253,4.253,0,0,1-1.128,2.561,4.987,4.987,0,0,1-3.757,1.489,5.416,5.416,0,1,1,0-10.831,5.19,5.19,0,0,1,3.689,1.456l1.433-1.433a7.1,7.1,0,0,0-5.111-2.11,7.458,7.458,0,1,0,0,14.9,6.586,6.586,0,0,0,6.961-6.848,6.616,6.616,0,0,0-.113-1.275h-6.848ZM392,166.048a4.433,4.433,0,0,0-8.62,1.738,4.694,4.694,0,0,0,4.761,4.8,4.773,4.773,0,0,0,3.994-2.121l-1.636-1.128a2.742,2.742,0,0,1-2.358,1.331,2.437,2.437,0,0,1-2.324-1.455l6.42-2.651Zm-6.544,1.6a2.629,2.629,0,0,1,2.5-2.8,1.862,1.862,0,0,1,1.783,1.015Zm-5.213,4.648h2.11V158.2h-2.11Zm-3.452-8.236h-.079a3.385,3.385,0,0,0-2.527-1.128,4.806,4.806,0,0,0,0,9.6,3.272,3.272,0,0,0,2.527-1.128h.068v.779c0,1.839-.982,2.821-2.561,2.821a2.651,2.651,0,0,1-2.414-1.7l-1.839.767a4.569,4.569,0,0,0,4.254,2.832c2.471,0,4.513-1.455,4.513-5v-8.631h-1.941Zm-2.414,6.634a2.922,2.922,0,0,1,0-5.822,2.919,2.919,0,0,1-.011,5.822Zm27.507-12.5h-5.043v14.1h2.11V166.95h2.945a4.389,4.389,0,1,0-.011-8.755Zm0,6.769h-2.945v-4.806h2.99a2.414,2.414,0,1,1,0,4.829Zm13.009-2.031a3.949,3.949,0,0,0-3.757,2.155l1.873.779a2,2,0,0,1,1.918-1.038,2.031,2.031,0,0,1,2.257,1.816v.147a4.66,4.66,0,0,0-2.2-.542c-2.02,0-4.062,1.128-4.062,3.17a3.261,3.261,0,0,0,3.5,3.1,2.967,2.967,0,0,0,2.708-1.354h.068V172.3h2.031v-5.427c0-2.471-1.873-3.9-4.276-3.9Zm-.259,7.729a1.467,1.467,0,0,1-1.647-1.2c0-1.128,1.2-1.5,2.257-1.5a3.746,3.746,0,0,1,1.918.474,2.55,2.55,0,0,1-2.471,2.256Zm11.993-7.39-2.414,6.115h-.068l-2.5-6.115H419.38l3.757,8.552-2.144,4.75h2.2l5.777-13.3h-2.336ZM407.657,172.3h2.11V158.2h-2.11Z" transform="translate(-279.84 -137.206)"/><path class="d" d="M291.555,144.728a2.256,2.256,0,0,0-.519,1.58v24.956a2.257,2.257,0,0,0,.519,1.58l.079.079,13.979-13.968v-.338l-13.979-13.968Z" transform="translate(-272.603 -134.975)"/><path class="e" d="M313.267,165.546l-4.626-4.66v-.338l4.626-4.66.1.057,5.54,3.148c1.58.891,1.58,2.358,0,3.261l-5.517,3.137Z" transform="translate(-275.63 -136.907)"/><path class="f" d="M310.483,166.482l-4.761-4.761-14.058,14.058a1.839,1.839,0,0,0,2.347.068l16.484-9.365" transform="translate(-272.712 -137.91)"/><path class="g" d="M310.481,153.945,294,144.58a1.839,1.839,0,0,0-2.347.068l14.069,14.058Z" transform="translate(-272.709 -134.896)"/><path class="h" d="M310.348,167.347,294,176.655a1.884,1.884,0,0,1-2.257,0h0l-.079.079h0l.079.079h0a1.873,1.873,0,0,0,2.257,0l16.484-9.365Z" transform="translate(-272.712 -138.877)"/><path class="i" d="M291.555,178.178a2.256,2.256,0,0,1-.519-1.58v.169a2.256,2.256,0,0,0,.519,1.58l.079-.079Z" transform="translate(-272.603 -140.468)"/><path class="i" d="M319.868,163.187l-5.641,3.193.1.1,5.54-3.137A1.974,1.974,0,0,0,321,161.72h0a2.1,2.1,0,0,1-1.128,1.467Z" transform="translate(-276.59 -137.91)"/><path class="j" d="M293.89,144.742l21.989,12.5a2.1,2.1,0,0,1,1.128,1.467h0a1.974,1.974,0,0,0-1.128-1.625l-21.989-12.5c-1.58-.891-2.866-.147-2.866,1.658v.169c.034-1.816,1.3-2.561,2.866-1.67Z" transform="translate(-272.602 -134.899)"/></svg>